PathFileType	4	(X/Y/Z)	../Python\walking\Walking18\task.trc
DataRate	CameraRate	NumFrames	NumMarkers	Units	OrigDataRate	OrigDataStartFrame	OrigNumFrames
200.000000	200.000000	5	30	mm	200.000000	54	439
Frame#	Time	RBAK			CLAV			STRN			RASI			LASI			PE01			RTH1			RTH2			RTH3			RTB3			RHEE			RD5M			RTOE			LTH2			LTH3			LTB2			LTB3			LHEE			LTOE			LD5M			LTB1			C7			RTB1			RTB2			LPSI			PE03			PE02			RPSI			LTH1			T10			
		X1	Y1	Z1	X2	Y2	Z2	X3	Y3	Z3	X4	Y4	Z4	X5	Y5	Z5	X6	Y6	Z6	X7	Y7	Z7	X8	Y8	Z8	X9	Y9	Z9	X10	Y10	Z10	X11	Y11	Z11	X12	Y12	Z12	X13	Y13	Z13	X14	Y14	Z14	X15	Y15	Z15	X16	Y16	Z16	X17	Y17	Z17	X18	Y18	Z18	X19	Y19	Z19	X20	Y20	Z20	X21	Y21	Z21	X22	Y22	Z22	X23	Y23	Z23	X24	Y24	Z24	X25	Y25	Z25	X26	Y26	Z26	X27	Y27	Z27	X28	Y28	Z28	X29	Y29	Z29	X30	Y30	Z30	

55	0.27	-1625.885375976563	1255.14404296875	249.6564178466798	-1447.724853515625	1257.593627929688	157.9491882324219	-1391.503295898438	1074.469848632813	167.3059387207032	-1437.633422851563	872.252563476563	279.9000854492189	-1417.096069335938	871.412719726563	54.16484832763675	-1623.260742187501	950.7873535156255	164.2538299560547	-1408.98974609375	592.227722167969	308.5392456054689	-1358.695922851563	531.523864746094	295.4488525390626	-1358.714477539063	592.3325195312502	305.353973388672	-1329.129028320313	237.2160034179689	272.119354248047	-1412.433471679688	43.89733886718751	196.9844207763673	-1268.89404296875	39.64006423950197	274.1495361328126	-1235.131469726563	55.78326416015628	229.1030426025392	-1542.033935546876	556.2698974609377	37.56272888183595	-1466.490600585938	579.7537231445315	44.26563644409181	-1627.455688476563	206.9119262695314	71.99267578125003	-1583.709106445313	229.9333038330079	75.33858489990237	-1684.564819335938	32.63285446166994	136.3434448242188	-1491.470458984375	25.14599609375001	145.104232788086	-1530.075439453125	12.2810173034668	91.8547286987305	-1610.739746093751	283.9304809570314	58.06756210327151	-1568.615600585938	1351.415283203125	148.2803497314454	-1316.076782226563	313.9383544921876	282.084442138672	-1359.622680664063	273.211883544922	287.7919006347657	-1623.451904296876	916.7125854492192	119.7222366333008	-1636.841918945313	891.649291992188	134.6614379882813	-1641.012573242188	889.945922851563	185.0985870361329	-1629.238525390626	913.4834594726567	208.1056365966798	-1506.822265625	605.624938964844	25.52856636047365	-1604.987548828126	1053.871337890625	154.4848022460938	
56	0.275	-1619.714843750001	1253.656494140625	249.1812286376954	-1441.2265625	1256.433349609375	158.1373138427735	-1384.94140625	1073.194213867188	167.1292572021485	-1430.5654296875	870.928344726563	279.3730773925782	-1410.579956054688	870.0084838867192	53.61877441406253	-1616.385742187501	949.5880737304692	164.5580291748047	-1402.23583984375	590.844909667969	308.0168457031251	-1351.93701171875	530.2083740234377	294.6012573242189	-1351.916137695313	590.9918212890627	304.5410766601564	-1314.015747070313	236.3984375000001	271.779754638672	-1389.884521484375	40.0458450317383	196.6744689941407	-1246.251708984375	40.66531372070314	273.9146423339845	-1213.095947265625	58.05786132812503	228.8526153564454	-1538.447021484376	555.7888183593752	37.25110626220705	-1462.713134765625	578.6221923828127	43.68936157226564	-1626.283447265626	206.9817047119142	71.83454132080081	-1582.406127929688	229.7631378173829	75.07224273681643	-1684.555419921876	32.89405822753908	136.4076843261719	-1491.439697265625	25.12354660034181	145.0534820556641	-1530.080444335938	12.28940296173096	91.80070495605472	-1609.035034179688	283.8853149414064	57.88027191162112	-1562.206542968751	1350.157470703125	148.3138580322266	-1303.843139648438	313.6000976562501	281.6799316406251	-1345.833251953125	271.2769165039064	287.1880798339845	-1616.902587890626	915.5794067382817	119.972770690918	-1630.276489257813	890.5102539062505	134.9786071777344	-1634.261108398438	888.787963867188	185.431381225586	-1622.412597656251	912.1744995117192	208.3242645263673	-1502.842163085938	604.8479003906252	25.11742210388185	-1598.373535156251	1052.530395507813	154.3597412109376	
57	0.28	-1613.513183593751	1252.102661132813	248.7118377685548	-1434.697998046875	1255.184326171875	158.3128662109376	-1378.354125976563	1071.818603515625	166.9429779052735	-1423.469360351563	869.494995117188	278.8561096191407	-1404.071655273438	868.5463867187505	53.07279586791995	-1609.495849609376	948.3073120117192	164.9322967529297	-1395.554077148438	589.2737426757815	307.5711669921876	-1345.294921875	528.6645507812502	293.8196716308595	-1345.181396484375	589.4287719726565	303.799774169922	-1299.104858398438	235.7139434814454	271.4244995117189	-1367.470458984375	36.68971252441408	196.3268890380861	-1223.9453125	42.01234436035158	273.7102661132814	-1191.406372070313	60.6382751464844	228.6711730957032	-1534.740234375	555.2425537109377	36.97716903686525	-1458.816528320313	577.470153808594	43.079891204834	-1625.036132812501	207.0585784912111	71.70224761962893	-1581.026855468751	229.5762634277345	74.82058715820315	-1684.539550781251	33.18859863281251	136.4935760498047	-1491.408203125	25.10336303710939	145.0121459960938	-1530.086669921875	12.28794670104981	91.76406860351565	-1607.222656250001	283.8370666503907	57.72138214111331	-1555.773315429688	1348.827514648438	148.3431091308594	-1291.807373046875	313.296112060547	281.2598571777345	-1332.212768554688	269.4351196289064	286.5712280273439	-1610.355712890626	914.371948242188	120.2882461547852	-1623.708129882813	889.302856445313	135.3524475097657	-1627.494018554688	887.5447387695317	185.8204498291016	-1615.568359375001	910.775512695313	208.5984802246095	-1498.788330078125	604.0280761718752	24.71650695800783	-1591.748535156251	1051.11767578125	154.2792968750001	
58	0.285	-1607.278808593751	1250.488647460938	248.2496337890626	-1428.1376953125	1253.851318359375	158.477279663086	-1371.741455078125	1070.348388671875	166.7490844726563	-1416.347045898438	867.9626464843755	278.3486633300782	-1397.5703125	867.0352172851567	52.52642059326175	-1602.591674804688	946.9489746093755	165.372055053711	-1388.941040039063	587.5234985351565	307.1984863281251	-1338.764526367188	526.9028320312502	293.101043701172	-1338.507690429688	587.6510009765627	303.1449279785157	-1284.423217773438	235.1686553955079	271.0645751953126	-1345.250854492188	33.83563232421876	195.9568481445314	-1202.012817382813	43.66672134399415	273.5461730957032	-1170.094604492188	63.51142501831058	228.5690155029298	-1530.909790039063	554.6340942382815	36.74084854125978	-1454.795654296875	576.2988281250002	42.45180892944337	-1623.719970703126	207.1473388671876	71.59573364257815	-1579.574462890626	229.3766479492189	74.58380889892581	-1684.516357421876	33.52148056030275	136.5993804931641	-1491.376220703125	25.08562660217287	144.979721069336	-1530.095092773438	12.27643489837647	91.74594879150393	-1605.311157226563	283.7900390625001	57.59073638916018	-1549.313842773438	1347.431274414063	148.3689117431641	-1279.981323242188	313.0328063964845	280.8297119140626	-1318.784790039063	267.6992187500001	285.9443969726564	-1603.809692382813	913.093627929688	120.6652603149415	-1617.135742187501	888.029907226563	135.7803192138672	-1620.710449218751	886.2202758789067	186.2631530761719	-1608.705688476563	909.2916870117192	208.9248352050782	-1494.654541015625	603.1690673828127	24.32972526550294	-1585.112060546876	1049.639282226563	154.2402801513672	
59	0.29	-1601.009887695313	1248.820922851563	247.7959442138673	-1421.544067382813	1252.439453125	158.6320953369141	-1365.103393554688	1068.790161132813	166.5495758056641	-1409.200073242188	866.3423461914067	277.8502807617189	-1391.0751953125	865.4838256835942	51.97907638549808	-1595.672851562501	945.5175170898442	165.8722534179688	-1382.394287109375	585.6065673828127	306.8921813964845	-1332.339965820313	524.938171386719	292.4396972656251	-1331.893798828125	585.6699829101565	302.5892028808595	-1269.997924804688	234.7653961181642	270.7113037109376	-1323.289916992188	31.48125457763673	195.5798645019532	-1180.493041992188	45.60811614990236	273.4312744140626	-1149.194458007813	66.65641021728518	228.5547790527345	-1526.956420898438	553.9686279296877	36.53994369506837	-1450.651000976563	575.1101074218752	41.81890869140626	-1622.341918945313	207.2529296875001	71.5136642456055	-1578.053344726563	229.1688995361329	74.36127471923831	-1684.484985351563	33.8977737426758	136.7222900390626	-1491.344116210938	25.07041549682619	144.9550781250001	-1530.10693359375	12.25517272949219	91.74664306640628	-1603.310546875001	283.7490234375001	57.4867973327637	-1542.826293945313	1345.974487304688	148.3921508789063	-1268.375732421875	312.8144836425782	280.3953247070314	-1305.5732421875	266.0797729492189	285.3109436035157	-1597.262573242188	911.7483520507817	121.0999603271485	-1610.557739257813	886.6946411132817	136.2592468261719	-1613.909301757813	884.8193969726567	186.7565155029297	-1601.824584960938	907.7287597656255	209.2994079589845	-1490.437133789063	602.2757568359377	23.95959663391114	-1578.463378906251	1048.101806640625	154.2391815185547	
